# xmcd
# 
# Track frame offsets:
#	150
#	28988
#	49568
#	67313
#	94710
#	119578
#	146335
#	161135
#
# Disc length: 2402 seconds
#
# Revision: 1
# Processed by: cddbd v1.4PL0 Copyright (c) Steve Scherf et al.
# Submitted via: Audio-CD-Archiv 2.10.438
#
DISCID=74096008
DTITLE=Lionel Richie - Can't Slow Down
DYEAR=1900
DGENRE=blues
TTITLE0=All Night Long
TTITLE1=Can't Slow Down
TTITLE2=Hello
TTITLE3=Love Will Find A Way
TTITLE4=Penny Lover
TTITLE5=Running With The Night
TTITLE6=Stuck On You
TTITLE7=The Only One
EXTD=
EXTT0=
EXTT1=
EXTT2=
EXTT3=
EXTT4=
EXTT5=
EXTT6=
EXTT7=
PLAYORDER=
